<svg width="47" height="37" viewBox="0 0 47 37" fill="none" xmlns="http://www.w3.org/2000/svg">
<rect x="13.25" y="0.641602" width="20.5" height="35.5" stroke="white" stroke-width="0.5"/>
<line x1="13" y1="8.1416" x2="34" y2="8.1416" stroke="white" stroke-width="0.5"/>
<line x1="13" y1="11.6416" x2="34" y2="11.6416" stroke="white" stroke-width="0.5"/>
<line x1="13" y1="19.1416" x2="34" y2="19.1416" stroke="white" stroke-width="0.5"/>
<line x1="13" y1="33.1416" x2="34" y2="33.1416" stroke="white" stroke-width="0.5"/>
<line x1="13" y1="27.1416" x2="34" y2="27.1416" stroke="white" stroke-width="0.5"/>
<path d="M29.9646 5.92696C29.9842 5.94648 30.0158 5.94648 30.0354 5.92696L30.3536 5.60876C30.3731 5.58923 30.3731 5.55757 30.3536 5.53805C30.334 5.51852 30.3024 5.51852 30.2828 5.53805L30 5.82089L29.7172 5.53805C29.6976 5.51852 29.666 5.51852 29.6464 5.53805C29.6269 5.55757 29.6269 5.58923 29.6464 5.60876L29.9646 5.92696ZM29.95 0.391602L29.95 5.8916L30.05 5.8916L30.05 0.391602L29.95 0.391602Z" fill="white"/>
<path d="M28.5354 13.8562C28.5158 13.8367 28.4842 13.8367 28.4646 13.8562L28.1464 14.1744C28.1269 14.194 28.1269 14.2256 28.1464 14.2452C28.166 14.2647 28.1976 14.2647 28.2172 14.2452L28.5 13.9623L28.7828 14.2452C28.8024 14.2647 28.834 14.2647 28.8536 14.2452C28.8731 14.2256 28.8731 14.194 28.8536 14.1744L28.5354 13.8562ZM28.55 19.3916L28.55 13.8916L28.45 13.8916L28.45 19.3916L28.55 19.3916Z" fill="white"/>
</svg>
