<svg width="31" height="17" viewBox="0 0 31 17" fill="none" xmlns="http://www.w3.org/2000/svg">
<rect x="0.320312" y="0.75" width="29.5" height="15.5" stroke="white" stroke-width="0.5"/>
<path d="M4.24645 3.5V2.04545H4.73793C4.85156 2.04545 4.94484 2.06487 5.01776 2.10369C5.09067 2.14205 5.14465 2.19484 5.17969 2.26207C5.21473 2.32931 5.23224 2.40578 5.23224 2.49148C5.23224 2.57718 5.21473 2.65317 5.17969 2.71946C5.14465 2.78575 5.09091 2.83783 5.01847 2.87571C4.94602 2.91312 4.85346 2.93182 4.74077 2.93182H4.34304V2.77273H4.73509C4.81274 2.77273 4.87524 2.76136 4.92259 2.73864C4.97041 2.71591 5.00497 2.68371 5.02628 2.64205C5.04806 2.59991 5.05895 2.54972 5.05895 2.49148C5.05895 2.43324 5.04806 2.38234 5.02628 2.33878C5.0045 2.29522 4.9697 2.2616 4.92188 2.23793C4.87405 2.21378 4.81084 2.2017 4.73224 2.2017H4.42259V3.5H4.24645ZM4.93111 2.84659L5.28906 3.5H5.08452L4.73224 2.84659H4.93111ZM5.94869 3.52273C5.84357 3.52273 5.7529 3.49953 5.67667 3.45312C5.60091 3.40625 5.54244 3.34091 5.50124 3.2571C5.46052 3.17282 5.44016 3.07481 5.44016 2.96307C5.44016 2.85133 5.46052 2.75284 5.50124 2.66761C5.54244 2.58191 5.59973 2.51515 5.67312 2.46733C5.74698 2.41903 5.83316 2.39489 5.93164 2.39489C5.98846 2.39489 6.04457 2.40436 6.09996 2.4233C6.15536 2.44223 6.20579 2.47301 6.25124 2.51562C6.2967 2.55777 6.33292 2.61364 6.35991 2.68324C6.3869 2.75284 6.40039 2.83854 6.40039 2.94034V3.01136H5.55948V2.86648H6.22994C6.22994 2.80492 6.21763 2.75 6.193 2.7017C6.16886 2.65341 6.13429 2.61529 6.08931 2.58736C6.0448 2.55942 5.99225 2.54545 5.93164 2.54545C5.86488 2.54545 5.80711 2.56203 5.75835 2.59517C5.71005 2.62784 5.67288 2.67045 5.64684 2.72301C5.6208 2.77557 5.60778 2.83191 5.60778 2.89205V2.98864C5.60778 3.07102 5.62198 3.14086 5.65039 3.19815C5.67927 3.25497 5.71928 3.2983 5.77042 3.32812C5.82156 3.35748 5.88098 3.37216 5.94869 3.37216C5.99272 3.37216 6.03249 3.366 6.068 3.35369C6.10399 3.34091 6.135 3.32197 6.16104 3.29688C6.18709 3.27131 6.20721 3.23958 6.22141 3.2017L6.38335 3.24716C6.3663 3.30208 6.33765 3.35038 6.29741 3.39205C6.25716 3.43324 6.20745 3.46544 6.14826 3.48864C6.08907 3.51136 6.02255 3.52273 5.94869 3.52273ZM7.14116 2.40909V2.55114H6.55309V2.40909H7.14116ZM6.72923 3.5V2.25852C6.72923 2.19602 6.7439 2.14394 6.77326 2.10227C6.80262 2.06061 6.84073 2.02936 6.88761 2.00852C6.93448 1.98769 6.98396 1.97727 7.03604 1.97727C7.07724 1.97727 7.11085 1.98059 7.1369 1.98722C7.16294 1.99384 7.18235 2 7.19513 2.00568L7.14684 2.15057C7.13832 2.14773 7.12648 2.14418 7.11133 2.13991C7.09665 2.13565 7.07724 2.13352 7.05309 2.13352C6.99769 2.13352 6.95768 2.14749 6.93306 2.17543C6.90891 2.20336 6.89684 2.24432 6.89684 2.2983V3.5H6.72923ZM7.78853 3.52273C7.68342 3.52273 7.59274 3.49953 7.51651 3.45312C7.44076 3.40625 7.38228 3.34091 7.34109 3.2571C7.30037 3.17282 7.28001 3.07481 7.28001 2.96307C7.28001 2.85133 7.30037 2.75284 7.34109 2.66761C7.38228 2.58191 7.43957 2.51515 7.51296 2.46733C7.58683 2.41903 7.673 2.39489 7.77148 2.39489C7.8283 2.39489 7.88441 2.40436 7.93981 2.4233C7.99521 2.44223 8.04563 2.47301 8.09109 2.51562C8.13654 2.55777 8.17276 2.61364 8.19975 2.68324C8.22674 2.75284 8.24023 2.83854 8.24023 2.94034V3.01136H7.39933V2.86648H8.06978C8.06978 2.80492 8.05747 2.75 8.03285 2.7017C8.0087 2.65341 7.97414 2.61529 7.92915 2.58736C7.88465 2.55942 7.83209 2.54545 7.77148 2.54545C7.70472 2.54545 7.64696 2.56203 7.59819 2.59517C7.54989 2.62784 7.51272 2.67045 7.48668 2.72301C7.46064 2.77557 7.44762 2.83191 7.44762 2.89205V2.98864C7.44762 3.07102 7.46183 3.14086 7.49023 3.19815C7.51912 3.25497 7.55913 3.2983 7.61026 3.32812C7.6614 3.35748 7.72082 3.37216 7.78853 3.37216C7.83256 3.37216 7.87234 3.366 7.90785 3.35369C7.94383 3.34091 7.97485 3.32197 8.00089 3.29688C8.02693 3.27131 8.04705 3.23958 8.06126 3.2017L8.22319 3.24716C8.20614 3.30208 8.1775 3.35038 8.13725 3.39205C8.09701 3.43324 8.04729 3.46544 7.9881 3.48864C7.92892 3.51136 7.86239 3.52273 7.78853 3.52273ZM8.49521 3.5V2.40909H8.65714V2.57386H8.6685C8.68839 2.51989 8.72437 2.47609 8.77646 2.44247C8.82854 2.40885 8.88725 2.39205 8.95259 2.39205C8.9649 2.39205 8.98029 2.39228 8.99876 2.39276C9.01722 2.39323 9.03119 2.39394 9.04066 2.39489V2.56534C9.03498 2.56392 9.02196 2.56179 9.0016 2.55895C8.98171 2.55563 8.96064 2.55398 8.93839 2.55398C8.88536 2.55398 8.83801 2.5651 8.79634 2.58736C8.75515 2.60914 8.72248 2.63944 8.69833 2.67827C8.67466 2.71662 8.66282 2.76042 8.66282 2.80966V3.5H8.49521ZM9.66353 3.52273C9.55842 3.52273 9.46774 3.49953 9.39151 3.45312C9.31576 3.40625 9.25728 3.34091 9.21609 3.2571C9.17537 3.17282 9.15501 3.07481 9.15501 2.96307C9.15501 2.85133 9.17537 2.75284 9.21609 2.66761C9.25728 2.58191 9.31457 2.51515 9.38796 2.46733C9.46183 2.41903 9.548 2.39489 9.64648 2.39489C9.7033 2.39489 9.75941 2.40436 9.81481 2.4233C9.87021 2.44223 9.92063 2.47301 9.96609 2.51562C10.0115 2.55777 10.0478 2.61364 10.0748 2.68324C10.1017 2.75284 10.1152 2.83854 10.1152 2.94034V3.01136H9.27433V2.86648H9.94478C9.94478 2.80492 9.93247 2.75 9.90785 2.7017C9.8837 2.65341 9.84914 2.61529 9.80415 2.58736C9.75965 2.55942 9.70709 2.54545 9.64648 2.54545C9.57972 2.54545 9.52196 2.56203 9.47319 2.59517C9.42489 2.62784 9.38772 2.67045 9.36168 2.72301C9.33564 2.77557 9.32262 2.83191 9.32262 2.89205V2.98864C9.32262 3.07102 9.33683 3.14086 9.36523 3.19815C9.39412 3.25497 9.43413 3.2983 9.48526 3.32812C9.5364 3.35748 9.59582 3.37216 9.66353 3.37216C9.70756 3.37216 9.74734 3.366 9.78285 3.35369C9.81883 3.34091 9.84985 3.32197 9.87589 3.29688C9.90193 3.27131 9.92205 3.23958 9.93626 3.2017L10.0982 3.24716C10.0811 3.30208 10.0525 3.35038 10.0123 3.39205C9.97201 3.43324 9.92229 3.46544 9.8631 3.48864C9.80392 3.51136 9.73739 3.52273 9.66353 3.52273ZM10.5378 2.84375V3.5H10.3702V2.40909H10.5321V2.57955H10.5463C10.5719 2.52415 10.6107 2.47964 10.6628 2.44602C10.7149 2.41193 10.7821 2.39489 10.8645 2.39489C10.9384 2.39489 11.003 2.41004 11.0584 2.44034C11.1138 2.47017 11.1569 2.51562 11.1877 2.5767C11.2185 2.63731 11.2338 2.71402 11.2338 2.80682V3.5H11.0662V2.81818C11.0662 2.73248 11.044 2.66572 10.9995 2.6179C10.955 2.5696 10.8939 2.54545 10.8162 2.54545C10.7627 2.54545 10.7149 2.55705 10.6728 2.58026C10.6311 2.60346 10.5982 2.63731 10.574 2.68182C10.5499 2.72633 10.5378 2.7803 10.5378 2.84375ZM11.9833 3.52273C11.881 3.52273 11.793 3.49858 11.7191 3.45028C11.6452 3.40199 11.5884 3.33546 11.5487 3.25071C11.5089 3.16596 11.489 3.06913 11.489 2.96023C11.489 2.84943 11.5094 2.75166 11.5501 2.6669C11.5913 2.58168 11.6486 2.51515 11.7219 2.46733C11.7958 2.41903 11.882 2.39489 11.9805 2.39489C12.0572 2.39489 12.1263 2.40909 12.1879 2.4375C12.2494 2.46591 12.2998 2.50568 12.3391 2.55682C12.3784 2.60795 12.4028 2.66761 12.4123 2.7358H12.2447C12.2319 2.68608 12.2035 2.64205 12.1594 2.60369C12.1159 2.56487 12.0572 2.54545 11.9833 2.54545C11.918 2.54545 11.8607 2.5625 11.8114 2.59659C11.7627 2.63021 11.7246 2.67779 11.6971 2.73935C11.6701 2.80043 11.6566 2.87216 11.6566 2.95455C11.6566 3.03883 11.6699 3.11222 11.6964 3.17472C11.7234 3.23722 11.7612 3.28575 11.81 3.32031C11.8593 3.35488 11.917 3.37216 11.9833 3.37216C12.0269 3.37216 12.0664 3.36458 12.1019 3.34943C12.1374 3.33428 12.1675 3.3125 12.1921 3.28409C12.2167 3.25568 12.2343 3.22159 12.2447 3.18182H12.4123C12.4028 3.24621 12.3794 3.30421 12.342 3.35582C12.305 3.40696 12.256 3.44768 12.195 3.47798C12.1344 3.50781 12.0638 3.52273 11.9833 3.52273ZM13.1147 3.52273C13.0096 3.52273 12.9189 3.49953 12.8427 3.45312C12.7669 3.40625 12.7085 3.34091 12.6673 3.2571C12.6265 3.17282 12.6062 3.07481 12.6062 2.96307C12.6062 2.85133 12.6265 2.75284 12.6673 2.66761C12.7085 2.58191 12.7657 2.51515 12.8391 2.46733C12.913 2.41903 12.9992 2.39489 13.0977 2.39489C13.1545 2.39489 13.2106 2.40436 13.266 2.4233C13.3214 2.44223 13.3718 2.47301 13.4173 2.51562C13.4627 2.55777 13.4989 2.61364 13.5259 2.68324C13.5529 2.75284 13.5664 2.83854 13.5664 2.94034V3.01136H12.7255V2.86648H13.396C13.396 2.80492 13.3836 2.75 13.359 2.7017C13.3349 2.65341 13.3003 2.61529 13.2553 2.58736C13.2108 2.55942 13.1583 2.54545 13.0977 2.54545C13.0309 2.54545 12.9731 2.56203 12.9244 2.59517C12.8761 2.62784 12.8389 2.67045 12.8129 2.72301C12.7868 2.77557 12.7738 2.83191 12.7738 2.89205V2.98864C12.7738 3.07102 12.788 3.14086 12.8164 3.19815C12.8453 3.25497 12.8853 3.2983 12.9364 3.32812C12.9876 3.35748 13.047 3.37216 13.1147 3.37216C13.1587 3.37216 13.1985 3.366 13.234 3.35369C13.27 3.34091 13.301 3.32197 13.3271 3.29688C13.3531 3.27131 13.3732 3.23958 13.3874 3.2017L13.5494 3.24716C13.5323 3.30208 13.5037 3.35038 13.4634 3.39205C13.4232 3.43324 13.3735 3.46544 13.3143 3.48864C13.2551 3.51136 13.1886 3.52273 13.1147 3.52273Z" fill="white"/>
<path d="M10.4595 9.23011L10.2337 9.29403C10.2195 9.25639 10.1985 9.21982 10.1708 9.1843C10.1438 9.14808 10.1069 9.11825 10.06 9.09482C10.0131 9.07138 9.95312 9.05966 9.87997 9.05966C9.77983 9.05966 9.69638 9.08274 9.62962 9.12891C9.56357 9.17436 9.53054 9.23224 9.53054 9.30256C9.53054 9.36506 9.55327 9.41442 9.59872 9.45064C9.64418 9.48686 9.7152 9.51705 9.81179 9.54119L10.0547 9.60085C10.201 9.63636 10.31 9.6907 10.3817 9.76385C10.4535 9.83629 10.4893 9.92969 10.4893 10.044C10.4893 10.1378 10.4624 10.2216 10.4084 10.2955C10.3551 10.3693 10.2805 10.4276 10.1847 10.4702C10.0888 10.5128 9.97727 10.5341 9.85014 10.5341C9.68324 10.5341 9.5451 10.4979 9.43572 10.4254C9.32635 10.353 9.2571 10.2472 9.22798 10.108L9.46662 10.0483C9.48935 10.1364 9.53232 10.2024 9.59553 10.2464C9.65945 10.2905 9.7429 10.3125 9.84588 10.3125C9.96307 10.3125 10.0561 10.2876 10.125 10.2379C10.1946 10.1875 10.2294 10.1271 10.2294 10.0568C10.2294 10 10.2095 9.95241 10.1697 9.91406C10.13 9.875 10.0689 9.84588 9.98651 9.8267L9.71378 9.76278C9.56392 9.72727 9.45384 9.67223 9.38352 9.59766C9.31392 9.52237 9.27912 9.42827 9.27912 9.31534C9.27912 9.22301 9.30504 9.14134 9.35689 9.07031C9.40945 8.99929 9.48082 8.94354 9.57102 8.90305C9.66193 8.86257 9.76491 8.84233 9.87997 8.84233C10.0419 8.84233 10.169 8.87784 10.2614 8.94886C10.3544 9.01989 10.4205 9.11364 10.4595 9.23011ZM11.0297 11.1136C10.9871 11.1136 10.9491 11.1101 10.9157 11.103C10.8824 11.0966 10.8593 11.0902 10.8465 11.0838L10.9104 10.8622C10.9715 10.8778 11.0255 10.8835 11.0724 10.8793C11.1192 10.875 11.1608 10.854 11.197 10.8164C11.2339 10.7795 11.2677 10.7195 11.2982 10.6364L11.3451 10.5085L10.74 8.86364H11.0127L11.4644 10.1676H11.4814L11.9331 8.86364H12.2059L11.5113 10.7386C11.48 10.8232 11.4413 10.8931 11.3952 10.9485C11.349 11.0046 11.2954 11.0462 11.2343 11.0732C11.1739 11.1001 11.1057 11.1136 11.0297 11.1136ZM13.6968 9.23011L13.471 9.29403C13.4568 9.25639 13.4358 9.21982 13.4081 9.1843C13.3811 9.14808 13.3442 9.11825 13.2973 9.09482C13.2504 9.07138 13.1904 9.05966 13.1173 9.05966C13.0171 9.05966 12.9337 9.08274 12.8669 9.12891C12.8009 9.17436 12.7678 9.23224 12.7678 9.30256C12.7678 9.36506 12.7906 9.41442 12.836 9.45064C12.8815 9.48686 12.9525 9.51705 13.0491 9.54119L13.292 9.60085C13.4383 9.63636 13.5473 9.6907 13.6191 9.76385C13.6908 9.83629 13.7267 9.92969 13.7267 10.044C13.7267 10.1378 13.6997 10.2216 13.6457 10.2955C13.5924 10.3693 13.5178 10.4276 13.422 10.4702C13.3261 10.5128 13.2146 10.5341 13.0874 10.5341C12.9205 10.5341 12.7824 10.4979 12.673 10.4254C12.5637 10.353 12.4944 10.2472 12.4653 10.108L12.7039 10.0483C12.7267 10.1364 12.7696 10.2024 12.8328 10.2464C12.8968 10.2905 12.9802 10.3125 13.0832 10.3125C13.2004 10.3125 13.2934 10.2876 13.3623 10.2379C13.4319 10.1875 13.4667 10.1271 13.4667 10.0568C13.4667 10 13.4468 9.95241 13.407 9.91406C13.3673 9.875 13.3062 9.84588 13.2238 9.8267L12.9511 9.76278C12.8012 9.72727 12.6911 9.67223 12.6208 9.59766C12.5512 9.52237 12.5164 9.42827 12.5164 9.31534C12.5164 9.22301 12.5423 9.14134 12.5942 9.07031C12.6468 8.99929 12.7181 8.94354 12.8083 8.90305C12.8992 8.86257 13.0022 8.84233 13.1173 8.84233C13.2792 8.84233 13.4063 8.87784 13.4987 8.94886C13.5917 9.01989 13.6578 9.11364 13.6968 9.23011ZM14.8168 8.86364V9.0767H13.9688V8.86364H14.8168ZM14.2159 8.47159H14.4673V10.0312C14.4673 10.1023 14.4776 10.1555 14.4982 10.1911C14.5195 10.2259 14.5465 10.2493 14.5792 10.2614C14.6126 10.2727 14.6477 10.2784 14.6847 10.2784C14.7124 10.2784 14.7351 10.277 14.7528 10.2741C14.7706 10.2706 14.7848 10.2678 14.7955 10.2656L14.8466 10.4915C14.8295 10.4979 14.8058 10.5043 14.7752 10.5107C14.7447 10.5178 14.706 10.5213 14.6591 10.5213C14.5881 10.5213 14.5185 10.506 14.4503 10.4755C14.3828 10.445 14.3267 10.3984 14.282 10.3359C14.2379 10.2734 14.2159 10.1946 14.2159 10.0994V8.47159ZM15.8635 10.5341C15.7058 10.5341 15.5698 10.4993 15.4554 10.4297C15.3418 10.3594 15.2541 10.2614 15.1923 10.1357C15.1312 10.0092 15.1007 9.86222 15.1007 9.6946C15.1007 9.52699 15.1312 9.37926 15.1923 9.25142C15.2541 9.12287 15.34 9.02273 15.4501 8.95099C15.5609 8.87855 15.6902 8.84233 15.8379 8.84233C15.9231 8.84233 16.0073 8.85653 16.0904 8.88494C16.1735 8.91335 16.2491 8.95952 16.3173 9.02344C16.3855 9.08665 16.4398 9.17045 16.4803 9.27486C16.5208 9.37926 16.541 9.50781 16.541 9.66051V9.76705H15.2797V9.54972H16.2853C16.2853 9.45739 16.2669 9.375 16.2299 9.30256C16.1937 9.23011 16.1419 9.17294 16.0744 9.13104C16.0076 9.08913 15.9288 9.06818 15.8379 9.06818C15.7377 9.06818 15.6511 9.09304 15.5779 9.14276C15.5055 9.19176 15.4498 9.25568 15.4107 9.33452C15.3716 9.41335 15.3521 9.49787 15.3521 9.58807V9.73295C15.3521 9.85653 15.3734 9.96129 15.416 10.0472C15.4593 10.1325 15.5194 10.1974 15.5961 10.2422C15.6728 10.2862 15.7619 10.3082 15.8635 10.3082C15.9295 10.3082 15.9892 10.299 16.0424 10.2805C16.0964 10.2614 16.1429 10.233 16.182 10.1953C16.2211 10.157 16.2512 10.1094 16.2725 10.0526L16.5154 10.1207C16.4899 10.2031 16.4469 10.2756 16.3865 10.3381C16.3262 10.3999 16.2516 10.4482 16.1628 10.483C16.074 10.517 15.9743 10.5341 15.8635 10.5341ZM16.9235 10.5V8.86364H17.1664V9.11932H17.1877C17.2218 9.03196 17.2768 8.96413 17.3528 8.91584C17.4288 8.86683 17.5201 8.84233 17.6266 8.84233C17.7346 8.84233 17.8244 8.86683 17.8961 8.91584C17.9686 8.96413 18.025 9.03196 18.0655 9.11932H18.0826C18.1245 9.0348 18.1873 8.96768 18.2711 8.91797C18.3549 8.86754 18.4554 8.84233 18.5726 8.84233C18.7189 8.84233 18.8386 8.88814 18.9316 8.97976C19.0247 9.07067 19.0712 9.21236 19.0712 9.40483V10.5H18.8198V9.40483C18.8198 9.28409 18.7868 9.1978 18.7207 9.14595C18.6547 9.09411 18.5769 9.06818 18.4874 9.06818C18.3723 9.06818 18.2832 9.10298 18.22 9.17259C18.1568 9.24148 18.1252 9.32884 18.1252 9.43466V10.5H17.8695V9.37926C17.8695 9.28622 17.8393 9.21129 17.7789 9.15447C17.7186 9.09695 17.6408 9.06818 17.5456 9.06818C17.4803 9.06818 17.4192 9.08558 17.3624 9.12038C17.3063 9.15518 17.2608 9.20348 17.226 9.26527C17.1919 9.32635 17.1749 9.39702 17.1749 9.47727V10.5H16.9235Z" fill="white"/>
<path d="M1.07031 4.5H16.0703V1.5" stroke="white" stroke-width="0.5" stroke-linecap="round"/>
</svg>
